# AST/ASF file generated using VICON BodyLanguage
# -----------------------------------------------
:version 1.10
:name VICON
:units
  mass 1.0
  length 0.45
  angle deg
:documentation
   .ast/.asf automatically generated from VICON data using
   VICON BodyBuilder and BodyLanguage model FoxedUp or BRILLIANT.MOD
:root
   order TX TY TZ RX RY RZ
   axis XYZ
   position 0 0 0  
   orientation 0 0 0 
:bonedata
  begin
     id 1 
     name lhipjoint
     direction 0.643824 -0.71708 0.266994 
     length 2.52133 
     axis 0 0 0  XYZ
  end
  begin
     id 2 
     name lfemur
     direction 0.34202 -0.939693 0  
     length 7.51824  
     axis 0 0 20  XYZ
    dof rx ry rz
    limits (-160.0 20.0)
           (-70.0 70.0)
           (-60.0 70.0)
  end
  begin
     id 3 
     name ltibia
     direction 0.34202 -0.939693 0   
     length 7.3685   
     axis 0 0 20   XYZ
    dof rx
    limits (-10.0 170.0)
  end
  begin
     id 4 
     name lfoot
     direction 0.105419 -0.289636 0.951314   
     length 2.20972   
     axis -90 7.62852e-016 20   XYZ
    dof rx rz
    limits (-45.0 90.0)
           (-70.0 20.0)
  end
  begin
     id 5 
     name ltoes
     direction 1.53549e-011 -4.21833e-011 1   
     length 1.10139   
     axis -90 7.62852e-016 20   XYZ
    dof rx
    limits (-90.0 20.0)
  end
  begin
     id 6 
     name rhipjoint
     direction -0.608823 -0.743445 0.276811   
     length 2.43192  
     axis 0 0 0  XYZ 
  end
  begin
     id 7 
     name rfemur
     direction -0.34202 -0.939693 0   
     length 7.69715   
     axis 0 0 -20   XYZ
    dof rx ry rz
    limits (-160.0 20.0)
           (-70.0 70.0)
           (-70.0 60.0)
  end
  begin
     id 8 
     name rtibia
     direction -0.34202 -0.939693 0   
     length 7.44924   
     axis 0 0 -20   XYZ
    dof rx
    limits (-10.0 170.0)
 end
 begin
     id 9 
     name rfoot
     direction -0.103614 -0.284677 0.953007   
     length 2.22623  
     axis -90 -7.62852e-016 -20   XYZ
    dof rx rz
    limits (-45.0 90.0)
           (-20.0 70.0)
  end
  begin
     id 10 
     name rtoes
     direction -1.53537e-011 -4.22026e-011 1   
     length 1.11   
     axis -90 -7.62852e-016 -20   XYZ
    dof rx
    limits (-90.0 20.0)
  end
  begin
     id 11 
     name lowerback
     direction -0.0101212 0.99662 -0.0815298   
     length 2.08277   
     axis 0 0 0   XYZ
    dof rx ry rz
    limits (-20.0 45.0)
           (-30.0 30.0)
           (-30.0 30.0)
  end
  begin
     id 12 
     name upperback
     direction 0.024314 0.999591 -0.0150645   
     length 2.08524   
     axis 0 0 0   XYZ
    dof rx ry rz
    limits (-20.0 45.0)
           (-30.0 30.0)
           (-30.0 30.0)
  end
  begin
     id 13 
     name thorax
     direction 0.0285959 0.999323 0.0231357   
     length 2.09645   
     axis 0 0 0   XYZ
    dof rx ry rz
    limits (-20.0 45.0)
           (-30.0 30.0)
           (-30.0 30.0)
  end
  begin
     id 14 
     name lowerneck
     direction -0.065512 0.979301 0.191515   
     length 1.63798   
     axis 0 0 0   XYZ
    dof rx ry rz
    limits (-20.0 45.0)
           (-30.0 30.0)
           (-30.0 30.0)
  end
  begin
     id 15 
     name upperneck
     direction 0.0498479 0.98191 -0.182667   
     length 1.68731   
     axis 0 0 0   XYZ
    dof rx ry rz
    limits (-20.0 45.0)
           (-30.0 30.0)
           (-30.0 30.0)
  end
  begin
     id 16
     name head
     direction 0.0230358 0.996257 -0.0833175  
     length 1.69785  
     axis 0 0 0   XYZ
    dof rx ry rz
    limits (-20.0 45.0)
           (-30.0 30.0)
           (-30.0 30.0)
  end
  begin
     id 17 
     name lclavicle
     direction 0.967963 0.201165 -0.150269  
     length 3.63976  
     axis 0 0 0   XYZ
    dof ry rz
    limits (-20.0 10.0)
           (0.0 20.0)
  end
  begin
     id 18 
     name lhumerus
     direction 1 -4.48954e-011 -2.92837e-028   
     length 5.32462   
     axis 180 -30 -90   XYZ
    dof rx ry rz
    limits (-60.0 90.0)
           (-90.0 90.0)
           (-90.0 90.0)
  end
  begin
     id 19
     name lradius
     direction 1 -4.48958e-011 -6.39511e-027   
     length 3.48402   
     axis 180 -30 -90   XYZ
    dof rx
    limits (-10.0 170.0)
  end
  begin
     id 20
     name lwrist
     direction 1 -4.48975e-011 -1.1413e-026   
     length 1.74201   
     axis 6.88575e-015 90 90   XYZ
    dof ry
    limits (-180.0 0.0)
 end
  begin
     id 21 
     name lhand
     direction 1 -4.48899e-011 -2.28192e-026   
     length 0.572476   
     axis 1.45643e-014 90 90   XYZ
    dof rx rz
    limits (-90.0 90.0)
           (-45.0 45.0)
  end
  begin
     id 22 
     name lfingers
     direction 1 -4.49155e-011 -4.5684e-026   
     length 0.461545   
     axis 2.91283e-014 90 90   XYZ
    dof rx
    limits (0.0 90.0)
  end
  begin
     id 23
     name lthumb
     direction 0.707107 -6.34943e-011 0.707107   
     length 0.662688   
     axis -90 45 -2.25915e-014   XYZ
    dof rx rz
    limits (-45.0 45.0)
           (-45.0 45.0)
  end
  begin
     id 24 
     name rclavicle
     direction -0.964103 0.264019 -0.0282629   
     length 3.54491  
     axis 0 0 0   XYZ 
    dof ry rz
    limits (-10.0 20.0)
           (-20.0 0.0)
  end
  begin
     id 25 
     name rhumerus
     direction -1 -4.48964e-011 -2.45032e-027  
     length 5.33589   
     axis 180 30 90   XYZ
    dof rx ry rz
    limits (-90.0 60.0)
           (-90.0 90.0)
           (-90.0 90.0)
  end
  begin
     id 26 
     name rradius
     direction -1 -4.48987e-011 -1.55093e-027   
     length 3.64134   
     axis 180 30 90   XYZ
    dof rx
    limits (-10.0 170.0)
  end
  begin
     id 27 
     name rwrist
     direction -1 -4.4897e-011 -1.14128e-026   
     length 1.82067   
     axis 6.88575e-015 -90 -90   XYZ
    dof ry
    limits (-180.0 0.0)
  end
  begin
     id 28
     name rhand
     direction -1 -4.49021e-011 -2.28301e-026   
     length 0.734811   
     axis 1.45643e-014 -90 -90   XYZ
    dof rx rz
    limits (-90.0 90.0)
           (-45.0 45.0)
  end
  begin
     id 29
     name rfingers
     direction -1 -4.48862e-011 -4.56319e-026   
     length 0.592424   
     axis 2.91283e-014 -90 -90   XYZ
    dof rx
    limits (0.0 90.0)
  end
  begin
     id 30
     name rthumb
     direction -0.707107 -6.34978e-011 0.707107   
     length 0.850605   
     axis -90 -45 2.25915e-014   XYZ
    dof rx rz
    limits (-45.0 45.0)
           (-45.0 45.0)
  end
:hierarchy
  begin
    root lhipjoint rhipjoint lowerback
    lhipjoint lfemur
    lfemur ltibia
    ltibia lfoot
    lfoot ltoes
    rhipjoint rfemur
    rfemur rtibia
    rtibia rfoot
    rfoot rtoes
    lowerback upperback
    upperback thorax
    thorax lowerneck lclavicle rclavicle
    lowerneck upperneck
    upperneck head
    lclavicle lhumerus
    lhumerus lradius
    lradius lwrist
    lwrist lhand lthumb
    lhand lfingers
    rclavicle rhumerus
    rhumerus rradius
    rradius rwrist
    rwrist rhand rthumb
    rhand rfingers
  end

#!OML:ASF F:\VICON\USERDATA\INSTALL\rory3\rory3.ASF
:FULLY-SPECIFIED
:DEGREES
1
root 0.531012 17.9082 -0.697009 2.18047 -6.73644 2.77877
lowerback -0.387811 -1.67259 -6.00045
upperback -1.51598 -2.241 1.6168
thorax -1.05339 -1.04795 5.04665
lowerneck -22.2349 -8.8464 -13.3075
upperneck 24.3154 -10.093 7.58811
head 12.9265 -4.75433 3.27404
rclavicle 7.46685e-015 6.36111e-015
rhumerus -32.7846 -14.2735 -74.6123
rradius 29.4929
rwrist 16.7133
rhand -37.3097 -4.31411
rfingers 7.12502
rthumb -10.3734 -34.0382
lclavicle 7.46685e-015 6.36111e-015
lhumerus -31.7214 11.2017 81.1926
lradius 25.7536
lwrist -6.04861
lhand -10.5121 26.9247
lfingers 7.12502
lthumb 15.4905 56.3241
rfemur -9.7184 2.99633 12.8044
rtibia 28.934
rfoot -20.5 -11.2689
rtoes -1.57552
lfemur -4.56274 1.88354 -25.0441
ltibia 19.3595
lfoot -12.1311 14.9166
ltoes -15.4469
2
root 0.531474 17.9077 -0.695792 2.09168 -6.66352 2.72717
lowerback -0.280654 -1.65818 -5.97949
upperback -1.47751 -2.22715 1.63836
thorax -1.07549 -1.04136 5.06013
lowerneck -22.2488 -8.69443 -13.2765
upperneck 24.1437 -9.87272 7.60418
head 12.8315 -4.65119 3.31761
rclavicle 6.3052e-015 -1.90833e-014
rhumerus -32.8372 -14.2776 -74.496
rradius 29.7406
rwrist 16.0793
rhand -37.5087 -4.30499
rfingers 7.12502
rthumb -10.5653 -34.0194
lclavicle 6.3052e-015 -1.90833e-014
lhumerus -31.6534 11.6196 80.9762
lradius 25.8764
lwrist -7.65883
lhand -11.9046 24.0824
lfingers 7.12502
lthumb 14.1489 53.5806
rfemur -9.58435 2.98503 12.8729
rtibia 28.9287
rfoot -20.5512 -11.2489
rtoes -1.25569
lfemur -4.47539 1.96674 -24.9742
ltibia 19.3822
lfoot -12.0947 14.7976
ltoes -15.641
3
root 0.531263 17.9053 -0.6935 2.0159 -6.63252 2.76531
lowerback -0.22502 -1.64241 -6.05606
upperback -1.43059 -2.20876 1.6507
thorax -1.05756 -1.03309 5.11731
lowerneck -22.4457 -8.56908 -13.2814
upperneck 24.1271 -9.64299 7.55698
head 12.8324 -4.55123 3.34096
rclavicle -1.75272e-014 -3.97569e-016
rhumerus -32.8166 -14.2149 -74.4231
rradius 29.9893
rwrist 15.3442
rhand -37.6171 -4.36274
rfingers 7.12502
rthumb -10.67 -34.0718
lclavicle -1.75272e-014 -3.97569e-016
lhumerus -31.544 11.8508 80.9047
lradius 25.9827
lwrist -8.3971
lhand -12.4899 22.6641
lfingers 7.12502
lthumb 13.5848 52.2009
rfemur -9.49514 2.9723 12.8345
rtibia 28.9424
rfoot -20.5626 -11.2767
rtoes -1.45629
lfemur -4.36872 1.94171 -25.0141
ltibia 19.3434
lfoot -12.0891 14.7951
ltoes -15.7452
4
root 0.534063 17.9058 -0.690807 1.99526 -6.57694 2.85835
lowerback -0.252754 -1.60493 -6.14727
upperback -1.36073 -2.15614 1.62154
thorax -0.974768 -1.0106 5.1364
lowerneck -22.7693 -8.46364 -13.1588
upperneck 24.1206 -9.44175 7.41561
head 12.8524 -4.46081 3.29848
rclavicle 1.66296e-014 1.19271e-015
rhumerus -32.6793 -14.3624 -74.3128
rradius 30.1522
rwrist 14.688
rhand -37.6775 -4.43427
rfingers 7.12502
rthumb -10.7282 -34.1403
lclavicle 1.66296e-014 1.19271e-015
lhumerus -31.351 11.8238 80.9863
lradius 26.0758
lwrist -8.36509
lhand -12.3744 22.7279
lfingers 7.12502
lthumb 13.6962 52.2572
rfemur -9.47074 2.83035 12.7194
rtibia 28.9414
rfoot -20.5182 -11.3447
rtoes -2.19072
lfemur -4.35963 1.91314 -25.1274
ltibia 19.3389
lfoot -12.0573 14.7908
ltoes -15.9693
5
root 0.534509 17.9064 -0.689533 2.02434 -6.4628 2.85149
lowerback -0.300302 -1.54795 -6.14942
upperback -1.30443 -2.07609 1.58614
thorax -0.901756 -0.974609 5.09842
lowerneck -23.0444 -8.39608 -13.0622
upperneck 24.1329 -9.3289 7.38347
head 12.8897 -4.39906 3.28696
rclavicle -2.23322e-015 -4.77083e-015
rhumerus -32.6231 -14.7268 -74.1672
rradius 30.3113
rwrist 14.2636
rhand -37.8287 -4.64159
rfingers 7.12502
rthumb -10.8741 -34.34
lclavicle -2.23322e-015 -4.77083e-015
lhumerus -31.1251 11.4299 81.1946
lradius 26.0618
lwrist -7.58681
lhand -11.6718 24.0797
lfingers 7.12502
lthumb 14.3733 53.5621
rfemur -9.47262 2.77326 12.7296
rtibia 28.9341
rfoot -20.5955 -11.4174
rtoes -2.1677
lfemur -4.41978 1.76803 -25.1203
ltibia 19.3486
lfoot -12.0163 14.8065
ltoes -16.0589
6
root 0.535986 17.9063 -0.689192 2.01093 -6.35419 2.79249
lowerback -0.300822 -1.49561 -6.09621
upperback -1.23791 -2.00458 1.56779
thorax -0.844489 -0.943027 5.04823
lowerneck -23.2098 -8.29777 -13.0447
upperneck 24.0752 -9.19235 7.47652
head 12.8864 -4.32033 3.34399
rclavicle -2.35218e-014 1.82882e-014
rhumerus -32.5945 -15.0871 -74.0229
rradius 30.5447
rwrist 13.8157
rhand -37.884 -4.77193
rfingers 7.12502
rthumb -10.9274 -34.4676
lclavicle -2.35218e-014 1.82882e-014
lhumerus -30.8742 10.8397 81.5144
lradius 25.9304
lwrist -6.07668
lhand -10.447 27.0341
lfingers 7.12502
lthumb 15.5531 56.4287
rfemur -9.42373 2.78573 12.8037
rtibia 28.9193
rfoot -20.6506 -11.5317
rtoes -2.34147
lfemur -4.41566 1.66906 -25.0491
ltibia 19.3693
lfoot -12.0508 14.7812
ltoes -15.8211
